<mxfile host="app.diagrams.net" modified="2021-03-01T09:30:44.362Z" agent="5.0 (Windows NT 10.0; WOW64) AppleWebKit/537.36 (KHTML, like Gecko) Chrome/88.0.4324.190 Safari/537.36" etag="NKge8I_MBphfaCrlxWBB" version="14.4.3" type="github" pages="2">
  <diagram id="arMLw49lAbnMpEtoiFhD" name="cas-utilisation">
    <mxGraphModel dx="2062" dy="1065" grid="1" gridSize="10" guides="1" tooltips="1" connect="1" arrows="1" fold="1" page="1" pageScale="1" pageWidth="827" pageHeight="1169" math="0" shadow="0">
      <root>
        <mxCell id="0" />
        <mxCell id="1" parent="0" />
        <mxCell id="NH8mnK03aw4n6L233ObE-24" style="edgeStyle=none;rounded=0;orthogonalLoop=1;jettySize=auto;html=1;exitX=0;exitY=0.5;exitDx=0;exitDy=0;endArrow=none;endFill=0;" parent="1" source="BZnesb25LMX4ftjR86Nr-1" edge="1">
          <mxGeometry relative="1" as="geometry">
            <mxPoint x="130" y="390" as="targetPoint" />
          </mxGeometry>
        </mxCell>
        <mxCell id="BZnesb25LMX4ftjR86Nr-1" value="Récupérer liste des personnes affiliées à une station" style="ellipse;whiteSpace=wrap;html=1;" parent="1" vertex="1">
          <mxGeometry x="310" y="100" width="140" height="70" as="geometry" />
        </mxCell>
        <mxCell id="NH8mnK03aw4n6L233ObE-25" style="edgeStyle=none;rounded=0;orthogonalLoop=1;jettySize=auto;html=1;exitX=0;exitY=0.5;exitDx=0;exitDy=0;endArrow=none;endFill=0;" parent="1" source="BZnesb25LMX4ftjR86Nr-2" edge="1">
          <mxGeometry relative="1" as="geometry">
            <mxPoint x="130" y="390" as="targetPoint" />
          </mxGeometry>
        </mxCell>
        <mxCell id="BZnesb25LMX4ftjR86Nr-2" value="Récupérer liste des personnes mineures à une adresse" style="ellipse;whiteSpace=wrap;html=1;" parent="1" vertex="1">
          <mxGeometry x="310" y="200" width="140" height="70" as="geometry" />
        </mxCell>
        <mxCell id="NH8mnK03aw4n6L233ObE-30" style="edgeStyle=none;rounded=0;orthogonalLoop=1;jettySize=auto;html=1;exitX=0;exitY=0.5;exitDx=0;exitDy=0;endArrow=none;endFill=0;" parent="1" source="BZnesb25LMX4ftjR86Nr-3" edge="1">
          <mxGeometry relative="1" as="geometry">
            <mxPoint x="130" y="390" as="targetPoint" />
          </mxGeometry>
        </mxCell>
        <mxCell id="BZnesb25LMX4ftjR86Nr-3" value="Récupérer liste des foyers affiliés à un ensemble de station" style="ellipse;whiteSpace=wrap;html=1;" parent="1" vertex="1">
          <mxGeometry x="310" y="500" width="140" height="70" as="geometry" />
        </mxCell>
        <mxCell id="NH8mnK03aw4n6L233ObE-27" style="edgeStyle=none;rounded=0;orthogonalLoop=1;jettySize=auto;html=1;exitX=0;exitY=0.5;exitDx=0;exitDy=0;endArrow=none;endFill=0;" parent="1" source="NH8mnK03aw4n6L233ObE-31" edge="1">
          <mxGeometry relative="1" as="geometry">
            <mxPoint x="130" y="390" as="targetPoint" />
            <mxPoint x="310" y="435" as="sourcePoint" />
          </mxGeometry>
        </mxCell>
        <mxCell id="BZnesb25LMX4ftjR86Nr-5" value="Récupérer liste des numéros de téléphone des personnes affiliées à une station" style="ellipse;whiteSpace=wrap;html=1;" parent="1" vertex="1">
          <mxGeometry x="310" y="300" width="140" height="70" as="geometry" />
        </mxCell>
        <mxCell id="NH8mnK03aw4n6L233ObE-28" style="edgeStyle=none;rounded=0;orthogonalLoop=1;jettySize=auto;html=1;exitX=0;exitY=0.5;exitDx=0;exitDy=0;endArrow=none;endFill=0;" parent="1" source="BZnesb25LMX4ftjR86Nr-9" edge="1">
          <mxGeometry relative="1" as="geometry">
            <mxPoint x="130" y="390" as="targetPoint" />
          </mxGeometry>
        </mxCell>
        <mxCell id="BZnesb25LMX4ftjR86Nr-9" value="Récupérer la ou les personnes pour nom et prénom donnés" style="ellipse;whiteSpace=wrap;html=1;" parent="1" vertex="1">
          <mxGeometry x="310" y="600" width="140" height="70" as="geometry" />
        </mxCell>
        <mxCell id="NH8mnK03aw4n6L233ObE-29" style="edgeStyle=none;rounded=0;orthogonalLoop=1;jettySize=auto;html=1;exitX=0;exitY=0.5;exitDx=0;exitDy=0;endArrow=none;endFill=0;" parent="1" source="BZnesb25LMX4ftjR86Nr-10" edge="1">
          <mxGeometry relative="1" as="geometry">
            <mxPoint x="130" y="390" as="targetPoint" />
          </mxGeometry>
        </mxCell>
        <mxCell id="BZnesb25LMX4ftjR86Nr-10" value="Récupérer la liste des emails par ville" style="ellipse;whiteSpace=wrap;html=1;" parent="1" vertex="1">
          <mxGeometry x="310" y="710" width="140" height="70" as="geometry" />
        </mxCell>
        <mxCell id="NH8mnK03aw4n6L233ObE-1" value="Alerts consumer" style="shape=umlActor;verticalLabelPosition=bottom;verticalAlign=top;html=1;" parent="1" vertex="1">
          <mxGeometry x="70" y="360" width="30" height="60" as="geometry" />
        </mxCell>
        <mxCell id="NH8mnK03aw4n6L233ObE-2" value="Alerts consumer" style="shape=umlActor;verticalLabelPosition=bottom;verticalAlign=top;html=1;" parent="1" vertex="1">
          <mxGeometry x="930" y="475" width="30" height="60" as="geometry" />
        </mxCell>
        <mxCell id="NH8mnK03aw4n6L233ObE-15" style="rounded=0;orthogonalLoop=1;jettySize=auto;html=1;exitX=0;exitY=0.5;exitDx=0;exitDy=0;endArrow=none;endFill=0;" parent="1" source="NH8mnK03aw4n6L233ObE-4" edge="1">
          <mxGeometry relative="1" as="geometry">
            <mxPoint x="1000" y="490" as="targetPoint" />
          </mxGeometry>
        </mxCell>
        <mxCell id="NH8mnK03aw4n6L233ObE-4" value="Ajouter une personne" style="ellipse;whiteSpace=wrap;html=1;" parent="1" vertex="1">
          <mxGeometry x="1140" y="120" width="140" height="70" as="geometry" />
        </mxCell>
        <mxCell id="NH8mnK03aw4n6L233ObE-16" style="edgeStyle=none;rounded=0;orthogonalLoop=1;jettySize=auto;html=1;exitX=0;exitY=0.5;exitDx=0;exitDy=0;endArrow=none;endFill=0;" parent="1" source="NH8mnK03aw4n6L233ObE-5" edge="1">
          <mxGeometry relative="1" as="geometry">
            <mxPoint x="1000" y="490" as="targetPoint" />
          </mxGeometry>
        </mxCell>
        <mxCell id="NH8mnK03aw4n6L233ObE-5" value="Modifier une personne" style="ellipse;whiteSpace=wrap;html=1;" parent="1" vertex="1">
          <mxGeometry x="1140" y="200" width="140" height="70" as="geometry" />
        </mxCell>
        <mxCell id="NH8mnK03aw4n6L233ObE-17" style="edgeStyle=none;rounded=0;orthogonalLoop=1;jettySize=auto;html=1;exitX=0;exitY=0.5;exitDx=0;exitDy=0;endArrow=none;endFill=0;" parent="1" source="NH8mnK03aw4n6L233ObE-6" edge="1">
          <mxGeometry relative="1" as="geometry">
            <mxPoint x="1000" y="490" as="targetPoint" />
          </mxGeometry>
        </mxCell>
        <mxCell id="NH8mnK03aw4n6L233ObE-6" value="Supprimer une personne" style="ellipse;whiteSpace=wrap;html=1;" parent="1" vertex="1">
          <mxGeometry x="1140" y="280" width="140" height="70" as="geometry" />
        </mxCell>
        <mxCell id="NH8mnK03aw4n6L233ObE-18" style="edgeStyle=none;rounded=0;orthogonalLoop=1;jettySize=auto;html=1;exitX=0;exitY=0.5;exitDx=0;exitDy=0;endArrow=none;endFill=0;" parent="1" source="NH8mnK03aw4n6L233ObE-7" edge="1">
          <mxGeometry relative="1" as="geometry">
            <mxPoint x="1000" y="490" as="targetPoint" />
          </mxGeometry>
        </mxCell>
        <mxCell id="NH8mnK03aw4n6L233ObE-7" value="Ajouter une station" style="ellipse;whiteSpace=wrap;html=1;" parent="1" vertex="1">
          <mxGeometry x="1140" y="390" width="140" height="70" as="geometry" />
        </mxCell>
        <mxCell id="NH8mnK03aw4n6L233ObE-19" style="edgeStyle=none;rounded=0;orthogonalLoop=1;jettySize=auto;html=1;exitX=0;exitY=0.5;exitDx=0;exitDy=0;endArrow=none;endFill=0;" parent="1" source="NH8mnK03aw4n6L233ObE-8" edge="1">
          <mxGeometry relative="1" as="geometry">
            <mxPoint x="1000" y="490" as="targetPoint" />
          </mxGeometry>
        </mxCell>
        <mxCell id="NH8mnK03aw4n6L233ObE-8" value="Modifier une station" style="ellipse;whiteSpace=wrap;html=1;" parent="1" vertex="1">
          <mxGeometry x="1140" y="470" width="140" height="70" as="geometry" />
        </mxCell>
        <mxCell id="NH8mnK03aw4n6L233ObE-20" style="edgeStyle=none;rounded=0;orthogonalLoop=1;jettySize=auto;html=1;exitX=0;exitY=0.5;exitDx=0;exitDy=0;endArrow=none;endFill=0;" parent="1" source="NH8mnK03aw4n6L233ObE-9" edge="1">
          <mxGeometry relative="1" as="geometry">
            <mxPoint x="1000" y="490" as="targetPoint" />
          </mxGeometry>
        </mxCell>
        <mxCell id="NH8mnK03aw4n6L233ObE-9" value="Supprimer une station" style="ellipse;whiteSpace=wrap;html=1;" parent="1" vertex="1">
          <mxGeometry x="1140" y="550" width="140" height="70" as="geometry" />
        </mxCell>
        <mxCell id="NH8mnK03aw4n6L233ObE-21" style="edgeStyle=none;rounded=0;orthogonalLoop=1;jettySize=auto;html=1;exitX=0;exitY=0.5;exitDx=0;exitDy=0;endArrow=none;endFill=0;" parent="1" source="NH8mnK03aw4n6L233ObE-10" edge="1">
          <mxGeometry relative="1" as="geometry">
            <mxPoint x="1000" y="490" as="targetPoint" />
          </mxGeometry>
        </mxCell>
        <mxCell id="NH8mnK03aw4n6L233ObE-10" value="Ajouter un dossier médical" style="ellipse;whiteSpace=wrap;html=1;" parent="1" vertex="1">
          <mxGeometry x="1140" y="670" width="140" height="70" as="geometry" />
        </mxCell>
        <mxCell id="NH8mnK03aw4n6L233ObE-22" style="edgeStyle=none;rounded=0;orthogonalLoop=1;jettySize=auto;html=1;exitX=0;exitY=0.5;exitDx=0;exitDy=0;endArrow=none;endFill=0;" parent="1" source="NH8mnK03aw4n6L233ObE-11" edge="1">
          <mxGeometry relative="1" as="geometry">
            <mxPoint x="1000" y="490" as="targetPoint" />
          </mxGeometry>
        </mxCell>
        <mxCell id="NH8mnK03aw4n6L233ObE-11" value="Modifier un dossier médical" style="ellipse;whiteSpace=wrap;html=1;" parent="1" vertex="1">
          <mxGeometry x="1140" y="750" width="140" height="70" as="geometry" />
        </mxCell>
        <mxCell id="NH8mnK03aw4n6L233ObE-23" style="edgeStyle=none;rounded=0;orthogonalLoop=1;jettySize=auto;html=1;exitX=0;exitY=0.5;exitDx=0;exitDy=0;endArrow=none;endFill=0;" parent="1" source="NH8mnK03aw4n6L233ObE-12" edge="1">
          <mxGeometry relative="1" as="geometry">
            <mxPoint x="1000" y="490" as="targetPoint" />
          </mxGeometry>
        </mxCell>
        <mxCell id="NH8mnK03aw4n6L233ObE-12" value="Supprimer un dossier médical" style="ellipse;whiteSpace=wrap;html=1;" parent="1" vertex="1">
          <mxGeometry x="1140" y="830" width="140" height="70" as="geometry" />
        </mxCell>
        <mxCell id="NH8mnK03aw4n6L233ObE-31" value="Récupérer l&#39;id de la station par adresse" style="ellipse;whiteSpace=wrap;html=1;" parent="1" vertex="1">
          <mxGeometry x="310" y="400" width="140" height="70" as="geometry" />
        </mxCell>
        <mxCell id="prKFMDTMrksa2ExYkkK6-1" style="edgeStyle=none;rounded=0;orthogonalLoop=1;jettySize=auto;html=1;exitX=0;exitY=0.5;exitDx=0;exitDy=0;endArrow=none;endFill=0;" edge="1" parent="1" source="BZnesb25LMX4ftjR86Nr-5">
          <mxGeometry relative="1" as="geometry">
            <mxPoint x="130" y="390" as="targetPoint" />
            <mxPoint x="320" y="245" as="sourcePoint" />
          </mxGeometry>
        </mxCell>
      </root>
    </mxGraphModel>
  </diagram>
  <diagram id="M1I8OciOEKULtp3rlAiG" name="classes">
    <mxGraphModel dx="2062" dy="1065" grid="1" gridSize="10" guides="1" tooltips="1" connect="1" arrows="1" fold="1" page="1" pageScale="1" pageWidth="827" pageHeight="1169" math="0" shadow="0">
      <root>
        <mxCell id="LtJaURHWfQgwvDMfvNra-0" />
        <mxCell id="LtJaURHWfQgwvDMfvNra-1" parent="LtJaURHWfQgwvDMfvNra-0" />
        <mxCell id="LtJaURHWfQgwvDMfvNra-2" value="Person" style="swimlane;fontStyle=0;childLayout=stackLayout;horizontal=1;startSize=26;fillColor=none;horizontalStack=0;resizeParent=1;resizeParentMax=0;resizeLast=0;collapsible=1;marginBottom=0;" parent="LtJaURHWfQgwvDMfvNra-1" vertex="1">
          <mxGeometry x="200" y="320" width="140" height="208" as="geometry" />
        </mxCell>
        <mxCell id="LtJaURHWfQgwvDMfvNra-3" value="+ firstName : String" style="text;strokeColor=none;fillColor=none;align=left;verticalAlign=top;spacingLeft=4;spacingRight=4;overflow=hidden;rotatable=0;points=[[0,0.5],[1,0.5]];portConstraint=eastwest;" parent="LtJaURHWfQgwvDMfvNra-2" vertex="1">
          <mxGeometry y="26" width="140" height="26" as="geometry" />
        </mxCell>
        <mxCell id="LtJaURHWfQgwvDMfvNra-4" value="+ lastName : String" style="text;strokeColor=none;fillColor=none;align=left;verticalAlign=top;spacingLeft=4;spacingRight=4;overflow=hidden;rotatable=0;points=[[0,0.5],[1,0.5]];portConstraint=eastwest;" parent="LtJaURHWfQgwvDMfvNra-2" vertex="1">
          <mxGeometry y="52" width="140" height="26" as="geometry" />
        </mxCell>
        <mxCell id="LtJaURHWfQgwvDMfvNra-5" value="+ address: String" style="text;strokeColor=none;fillColor=none;align=left;verticalAlign=top;spacingLeft=4;spacingRight=4;overflow=hidden;rotatable=0;points=[[0,0.5],[1,0.5]];portConstraint=eastwest;" parent="LtJaURHWfQgwvDMfvNra-2" vertex="1">
          <mxGeometry y="78" width="140" height="26" as="geometry" />
        </mxCell>
        <mxCell id="LtJaURHWfQgwvDMfvNra-6" value="+ city : String" style="text;strokeColor=none;fillColor=none;align=left;verticalAlign=top;spacingLeft=4;spacingRight=4;overflow=hidden;rotatable=0;points=[[0,0.5],[1,0.5]];portConstraint=eastwest;" parent="LtJaURHWfQgwvDMfvNra-2" vertex="1">
          <mxGeometry y="104" width="140" height="26" as="geometry" />
        </mxCell>
        <mxCell id="LtJaURHWfQgwvDMfvNra-7" value="+ zip : String" style="text;strokeColor=none;fillColor=none;align=left;verticalAlign=top;spacingLeft=4;spacingRight=4;overflow=hidden;rotatable=0;points=[[0,0.5],[1,0.5]];portConstraint=eastwest;" parent="LtJaURHWfQgwvDMfvNra-2" vertex="1">
          <mxGeometry y="130" width="140" height="26" as="geometry" />
        </mxCell>
        <mxCell id="LtJaURHWfQgwvDMfvNra-8" value="+ phone : String" style="text;strokeColor=none;fillColor=none;align=left;verticalAlign=top;spacingLeft=4;spacingRight=4;overflow=hidden;rotatable=0;points=[[0,0.5],[1,0.5]];portConstraint=eastwest;" parent="LtJaURHWfQgwvDMfvNra-2" vertex="1">
          <mxGeometry y="156" width="140" height="26" as="geometry" />
        </mxCell>
        <mxCell id="LtJaURHWfQgwvDMfvNra-9" value="+ email : String" style="text;strokeColor=none;fillColor=none;align=left;verticalAlign=top;spacingLeft=4;spacingRight=4;overflow=hidden;rotatable=0;points=[[0,0.5],[1,0.5]];portConstraint=eastwest;" parent="LtJaURHWfQgwvDMfvNra-2" vertex="1">
          <mxGeometry y="182" width="140" height="26" as="geometry" />
        </mxCell>
        <mxCell id="LtJaURHWfQgwvDMfvNra-10" value="Firestation" style="swimlane;fontStyle=0;childLayout=stackLayout;horizontal=1;startSize=26;fillColor=none;horizontalStack=0;resizeParent=1;resizeParentMax=0;resizeLast=0;collapsible=1;marginBottom=0;" parent="LtJaURHWfQgwvDMfvNra-1" vertex="1">
          <mxGeometry x="480" y="470" width="140" height="78" as="geometry" />
        </mxCell>
        <mxCell id="LtJaURHWfQgwvDMfvNra-11" value="+ address : String" style="text;strokeColor=none;fillColor=none;align=left;verticalAlign=top;spacingLeft=4;spacingRight=4;overflow=hidden;rotatable=0;points=[[0,0.5],[1,0.5]];portConstraint=eastwest;" parent="LtJaURHWfQgwvDMfvNra-10" vertex="1">
          <mxGeometry y="26" width="140" height="26" as="geometry" />
        </mxCell>
        <mxCell id="LtJaURHWfQgwvDMfvNra-12" value="+ station : int" style="text;strokeColor=none;fillColor=none;align=left;verticalAlign=top;spacingLeft=4;spacingRight=4;overflow=hidden;rotatable=0;points=[[0,0.5],[1,0.5]];portConstraint=eastwest;" parent="LtJaURHWfQgwvDMfvNra-10" vertex="1">
          <mxGeometry y="52" width="140" height="26" as="geometry" />
        </mxCell>
        <mxCell id="LtJaURHWfQgwvDMfvNra-14" value="MedicalRecords" style="swimlane;fontStyle=0;childLayout=stackLayout;horizontal=1;startSize=26;fillColor=none;horizontalStack=0;resizeParent=1;resizeParentMax=0;resizeLast=0;collapsible=1;marginBottom=0;" parent="LtJaURHWfQgwvDMfvNra-1" vertex="1">
          <mxGeometry x="200" y="585" width="200" height="156" as="geometry" />
        </mxCell>
        <mxCell id="LtJaURHWfQgwvDMfvNra-15" value="+ firstName : String" style="text;strokeColor=none;fillColor=none;align=left;verticalAlign=top;spacingLeft=4;spacingRight=4;overflow=hidden;rotatable=0;points=[[0,0.5],[1,0.5]];portConstraint=eastwest;" parent="LtJaURHWfQgwvDMfvNra-14" vertex="1">
          <mxGeometry y="26" width="200" height="26" as="geometry" />
        </mxCell>
        <mxCell id="LtJaURHWfQgwvDMfvNra-16" value="+ lastName : String" style="text;strokeColor=none;fillColor=none;align=left;verticalAlign=top;spacingLeft=4;spacingRight=4;overflow=hidden;rotatable=0;points=[[0,0.5],[1,0.5]];portConstraint=eastwest;" parent="LtJaURHWfQgwvDMfvNra-14" vertex="1">
          <mxGeometry y="52" width="200" height="26" as="geometry" />
        </mxCell>
        <mxCell id="LtJaURHWfQgwvDMfvNra-17" value="+ birthDate : Date" style="text;strokeColor=none;fillColor=none;align=left;verticalAlign=top;spacingLeft=4;spacingRight=4;overflow=hidden;rotatable=0;points=[[0,0.5],[1,0.5]];portConstraint=eastwest;" parent="LtJaURHWfQgwvDMfvNra-14" vertex="1">
          <mxGeometry y="78" width="200" height="26" as="geometry" />
        </mxCell>
        <mxCell id="LtJaURHWfQgwvDMfvNra-18" value="+ medications : Array&lt;String&gt;" style="text;strokeColor=none;fillColor=none;align=left;verticalAlign=top;spacingLeft=4;spacingRight=4;overflow=hidden;rotatable=0;points=[[0,0.5],[1,0.5]];portConstraint=eastwest;" parent="LtJaURHWfQgwvDMfvNra-14" vertex="1">
          <mxGeometry y="104" width="200" height="26" as="geometry" />
        </mxCell>
        <mxCell id="LtJaURHWfQgwvDMfvNra-22" value="+ allergies : Array&lt;String&gt;" style="text;strokeColor=none;fillColor=none;align=left;verticalAlign=top;spacingLeft=4;spacingRight=4;overflow=hidden;rotatable=0;points=[[0,0.5],[1,0.5]];portConstraint=eastwest;" parent="LtJaURHWfQgwvDMfvNra-14" vertex="1">
          <mxGeometry y="130" width="200" height="26" as="geometry" />
        </mxCell>
      </root>
    </mxGraphModel>
  </diagram>
</mxfile>
